<?xml version="1.0" encoding="utf-8"?>
<!-- Svg Vector Icons : http://www.onlinewebfonts.com/icon -->
<!DOCTYPE svg PUBLIC "-//W3C//DTD SVG 1.1//EN" "http://www.w3.org/Graphics/SVG/1.1/DTD/svg11.dtd">
<svg version="1.1" xmlns="http://www.w3.org/2000/svg" xmlns:xlink="http://www.w3.org/1999/xlink" x="0px" y="0px" viewBox="0 0 1000 1000" enable-background="new 0 0 1000 1000" xml:space="preserve">
<metadata> Svg Vector Icons : http://www.onlinewebfonts.com/icon </metadata>
<g><g transform="translate(0.000000,512.000000) scale(0.100000,-0.100000)"><path d="M4190.4,4712.8l-455.6-304.3h-821.1h-823v-765.6v-765.6h153.1h153.1v612.5v612.5h708.2h708.2l459.4,306.3l459.4,306.3h1435.5h1435.5V3796v-918.8h153.1h153.1v1071.9V5021l-1630.8-1.9H4645.9L4190.4,4712.8z"/><path d="M5765.6,3949.1V3796h765.6h765.6v153.1v153.1h-765.6h-765.6V3949.1z"/><path d="M2703.1,3336.6v-153.1H5000h2296.9v153.1v153.1H5000H2703.1V3336.6z"/><path d="M1057,2563.3c0-1.9-214.4-723.5-478.5-1600.2L100-631.3v-2005.9c0-1429.8,5.7-2019.3,21.1-2051.9c11.5-26.8,42.1-57.4,68.9-68.9c65.1-30.6,9555-30.6,9620.1,0c26.8,11.5,57.4,42.1,68.9,68.9c15.3,32.5,21,622.1,21,2051.9v2005.9L9421.5,963.1C9157.3,1839.8,8943,2561.4,8943,2563.3c0,3.8-93.8,7.7-210.5,7.7h-210.5v-151.2v-153.1l99.5-5.7l99.5-5.7l407.7-1359c224-746.5,407.7-1364.7,407.7-1372.4c0-9.6-2040.4-15.3-4536.3-15.3c-2495.9,0-4536.3,5.7-4536.3,15.3c0,7.7,183.7,625.9,407.7,1372.4l407.7,1359l99.5,5.7l99.5,5.7v153.1V2571h-210.5C1152.7,2571,1057,2567.1,1057,2563.3z M9593.7-2635.3v-1837.5H5000H406.2v1837.5v1837.5H5000h4593.7V-2635.3z"/><path d="M2707-2399.9l5.7-532.1l65.1-120.6c74.6-135.9,149.3-210.5,294.8-287.1l99.5-51.7h1818.4h1818.4l107.2,49.8c137.8,65.1,256.5,183.8,321.6,321.6c49.8,107.2,49.8,111,55.5,629.7l5.7,520.6H5000H2701.2L2707-2399.9z M6986.8-2547.3c-5.7-415.3-15.3-444-151.2-513c-61.3-32.5-187.6-34.4-1835.6-34.4c-1648,0-1774.3,1.9-1835.6,34.4c-135.9,68.9-145.5,97.6-151.2,513l-5.7,371.3H5000h1992.5L6986.8-2547.3z"/><path d="M3621.9-2635.3v-153.1H5000h1378.1v153.1v153.1H5000H3621.9V-2635.3z"/><path d="M1784.4-2635.3v-153.1h153.1h153.1v153.1v153.1h-153.1h-153.1V-2635.3z"/><path d="M7909.4-2635.3v-153.1h153.1h153.1v153.1v153.1h-153.1h-153.1V-2635.3z"/><path d="M1784.4,2188.1v-382.8h153.1h153.1V2035v229.7H5000h2909.4V2035v-229.7h153.1h153.1v382.8V2571H5000H1784.4V2188.1z"/><path d="M1478.1,1192.8V886.6h153.1h153.1v153.1v153.1H5000h3215.6v-153.1V886.6h153.1h153.1v306.3v306.3H5000H1478.1V1192.8z"/><path d="M1171.9,197.5v-382.8H1325h153.1V44.4v229.7H5000h3521.9V44.4v-229.7H8675h153.1v382.8v382.8H5000H1171.9V197.5z"/></g></g>
</svg>