<?xml version="1.0" encoding="utf-8"?>
<!-- Svg Vector Icons : http://www.onlinewebfonts.com/icon -->
<!DOCTYPE svg PUBLIC "-//W3C//DTD SVG 1.1//EN" "http://www.w3.org/Graphics/SVG/1.1/DTD/svg11.dtd">
<svg version="1.1" xmlns="http://www.w3.org/2000/svg" xmlns:xlink="http://www.w3.org/1999/xlink" x="0px" y="0px" viewBox="0 0 1000 1000" enable-background="new 0 0 1000 1000" xml:space="preserve">
<metadata> Svg Vector Icons : http://www.onlinewebfonts.com/icon </metadata>
<g><path d="M21.4,482.6l54.8,28.2c0,0,25,14.3,38.1-12.4l135.8-283.9c0,0,12.9-24.3-8.1-35.7l-59.9-29.2c0,0-18.5-10.3-30.6,11.5c-0.4,8.8-139.3,289.3-139.3,289.3S3.3,473.4,21.4,482.6L21.4,482.6L21.4,482.6z M916.7,511.4l56-25.8c0,0,26.8-10.8,13.8-37.7L846.8,166c0,0-11.2-25-33.1-15.6l-59.9,29c0,0-19.6,8.2-10,31.2c6.7,5.8,141.7,288.3,141.7,288.3S898.2,520,916.7,511.4L916.7,511.4L916.7,511.4z M154.3,510.5l18.5-39.2l64.9,81.9c0,0,42.2-9.7,57,16.7c0,0,13.9,16,7.8,46.3c0,0,8.7,6.3,9.4,10.3c0,0,29-7,46.5,13.6c0,0,16,12.8,14.2,37.7c0,0,11.5,4.9,13.9,11.8c0,0,28.5-7.1,42.4,9.6c0,0,16.9,15.8,15.7,34.3L471,753c0,0,24.7,2.1,28.7,21.4l23.7,17.6c0,0,38,15,40.1-22.9L474.3,701c0,0-10.5-27.4,22.2-23.1l132.9,93.6c0,0,21.7,9.3,34.9-11.3c0,0,12.8-17.8-5.4-37.1L517.6,620.9c0,0-12.5-28.6,19.6-26.4l167.8,118.7c0,0,23.8,9.5,33.8-8.3c0,0,13.6-17.7,0-36L553.7,533.8c0,0-11.2-32.4,23.5-24l191,136c0,0,28.9,9.1,41.7-14.5c0,0,16.4-25.3-5.6-46.2L534.2,349.5c0,0-50.2-24-80.2,26.2c0,0-5.3,81.8-96.1,96.7c0,0-62-4.8-47.6-45.4c0,0,18.2-24.1,16.6-74.8c0,0,2.1-36.4,27.3-67.4h-97.3l21.4-44.3h146.9c0,0,60.3-34.2,105.9-31c0,0,59.4,3.2,75.3,12.3c0,0,78.6,25.1,113.8,19.2l131.5,272.5l-20.9,47.6c0,0,38.5,39.6,10.1,87.5c-7.9,16.1-28.2,31.6-61.4,33.2c0,0,5.1,32.3-18.2,50.6c0,0-17.1,23.4-58.5,17c0,0,2.4,28.6-25.1,47.6c0,0-32.6,28.1-83.1-6.1c0,0-8,32.2-48.3,38.7c0,0-29.4,4.6-46.5-12c0,0-30.8,58-74.6,25.3c0,0-27.8-23-8.3-55.5c0,0-37.4,59-81.7,14.7c0,0-24.6-18.5-1.9-57.2c0,0-35.2,40.1-74,3.8c0,0-26.5-21.6-5.3-61.9c0,0-36,42.7-78,2c0,0-17.6-16.2-7.5-52.3l40.6-55.5L154.3,510.5L154.3,510.5L154.3,510.5z"/></g>
</svg>